<?xml version="1.0" encoding="utf-8"?>
<!DOCTYPE svg PUBLIC "-//W3C//DTD SVG 20010904//EN" "http://www.w3.org/TR/2001/REC-SVG-20010904/DTD/svg10.dtd">
<svg version="1.0" xmlns="http://www.w3.org/2000/svg" width="153px" height="341px" viewBox="0 0 153 341" preserveAspectRatio="xMidYMid meet">
 <g fill="#f15d4b">
  <path d="M75 151.8 c0 -1.7 -9.6 -11.2 -36.9 -36.7 -20.3 -19 -37.2 -35.2 -37.4 -36.1 -0.2 -0.9 0.1 -2.6 0.7 -3.7 1.6 -3 68.3 -72.6 70.8 -74 1.1 -0.6 2.9 -0.8 3.8 -0.5 2.5 1 74.5 68.2 75.7 70.7 0.6 1.1 0.7 2.8 0.4 3.7 -0.3 0.9 -12.6 14.2 -27.2 29.5 -40.9 42.8 -41.9 43.9 -41.9 46.8 0 2.3 -0.4 2.5 -4 2.5 -3.5 0 -4 -0.3 -4 -2.2z m-22 -78.1 c1.9 -1.2 4.2 -3.7 5.3 -5.5 1.8 -3.1 1.8 -3.3 0 -6.4 -1.7 -3 -7.5 -7.8 -9.3 -7.8 -1.8 0 -7.6 4.8 -9.3 7.8 -1.8 3.1 -1.8 3.3 0 6.4 1.7 3 7.5 7.8 9.3 7.8 0.4 0 2.2 -1 4 -2.3z m24 -1.7 c0 -2.6 1.2 -6.5 3.5 -11 1.9 -3.9 3.3 -7 3 -7 -0.2 0 -1.4 1.8 -2.5 4 -1.8 3.5 -2.5 4 -5.5 4 -3 0 -3.7 -0.5 -5.5 -4 -1.1 -2.2 -2.3 -4 -2.5 -4 -0.3 0 1.1 3.1 3 7 2.3 4.5 3.5 8.4 3.5 11 0 2.9 0.4 4 1.5 4 1.1 0 1.5 -1.1 1.5 -4z m29 1.7 c1.9 -1.2 4.2 -3.7 5.3 -5.5 1.8 -3.1 1.8 -3.3 0 -6.4 -1.7 -3 -7.5 -7.8 -9.3 -7.8 -1.8 0 -7.6 4.8 -9.3 7.8 -1.8 3.1 -1.8 3.3 0 6.4 1.7 3 7.5 7.8 9.3 7.8 0.4 0 2.2 -1 4 -2.3z"/>
  <path d="M42.7 71.2 c-2.4 -2.6 -2.3 -10.4 0.1 -12.5 2.6 -2.4 10.4 -2.3 12.5 0.1 2.4 2.6 2.3 10.4 -0.1 12.5 -2.6 2.4 -10.4 2.3 -12.5 -0.1z"/>
  <path d="M95.7 71.2 c-2.4 -2.6 -2.3 -10.4 0.1 -12.5 2.6 -2.4 10.4 -2.3 12.5 0.1 2.4 2.6 2.3 10.4 -0.1 12.5 -2.6 2.4 -10.4 2.3 -12.5 -0.1z"/>
 </g>
 <g fill="#ffffff">
  <path d="M41.3 111.4 c-28.5 -26.6 -32.8 -31 -33 -33.7 -0.3 -2.9 1.4 -4.9 18.5 -22.3 10.3 -10.5 16.2 -16.3 13.2 -13 -3.1 3.4 -11.3 12 -18.3 19.3 -9.2 9.6 -12.7 13.9 -12.7 15.7 0 1.9 6.4 8.4 29.3 29.8 16.1 15 31.1 29 33.5 31.1 2.3 2 3.8 3.7 3.2 3.7 -0.5 0 -15.7 -13.8 -33.7 -30.6z"/>
  <path d="M92.6 129.8 c11.6 -12 26.9 -27.8 42.7 -44.4 10.8 -11.5 10.8 -11.8 -3 -24.8 -6 -5.5 -14.2 -13.4 -18.3 -17.5 -7.9 -7.8 9.3 7.7 22.7 20.4 9.1 8.7 9.4 10.9 3.1 18.3 -7.9 9.1 -57.3 60.2 -58.2 60.2 -0.5 0 4.4 -5.5 11 -12.2z"/>
  <path d="M42.2 77 c-6.8 -4.2 -9.1 -12.4 -5.2 -18.8 5.7 -9.4 18.3 -9.4 24 0 5.3 8.7 -1.7 20.8 -12 20.8 -1.9 0 -5 -0.9 -6.8 -2z m10 -8.7 c2.2 -2 2.3 -4.1 0.1 -6.5 -2 -2.2 -4.1 -2.3 -6.5 -0.1 -2.2 2 -2.3 4.1 -0.1 6.5 2 2.2 4.1 2.3 6.5 0.1z"/>
  <path d="M71 75 c0 -2.8 -1.5 -7 -5 -14 l-5 -10 5 0 c4.8 0 5 0.1 7 4 1.1 2.2 2.2 4 2.5 4 0.3 0 1.4 -1.8 2.5 -4 2 -3.9 2.2 -4 7 -4 l5 0 -5 10 c-3.5 7 -5 11.2 -5 14 l0 4 -4.5 0 -4.5 0 0 -4z"/>
  <path d="M95.2 77 c-1.8 -1.1 -4.1 -3.4 -5.2 -5.2 -7.1 -11.7 7.1 -25.9 18.8 -18.8 4.2 2.6 7.2 7.6 7.2 12 0 7.1 -6.9 14 -14 14 -1.9 0 -5 -0.9 -6.8 -2z m10 -8.7 c2.2 -2 2.3 -4.1 0.1 -6.5 -2 -2.2 -4.1 -2.3 -6.5 -0.1 -2.2 2 -2.3 4.1 -0.1 6.5 2 2.2 4.1 2.3 6.5 0.1z"/>
  <path d="M96 26.3 l-5.5 -5.8 5.8 5.5 c5.3 5 6.2 6 5.4 6 -0.1 0 -2.7 -2.6 -5.7 -5.7z"/>
  <path d="M63 17.8 c10.5 -10.9 12.5 -11.3 19.8 -4.2 l4.7 4.7 -4.7 -4.2 c-7.3 -6.4 -9.4 -5.9 -19.8 4.2 l-8.5 8.2 8.5 -8.7z"/>
 </g>
 <g fill="#dfdfdf">
  <path d="M73 319.1 c0 -12.9 0.4 -21.2 1 -21.6 0.7 -0.4 1 -26 1 -73.5 l0 -72.8 4 -0.4 4 -0.4 0.5 73.6 c0.2 40.4 0.7 83.1 1 94.8 l0.6 21.2 -6.1 0 -6 0 0 -20.9z"/>
  <path d="M47.7 33.5 c2.8 -3.3 6.4 -7.1 7.9 -8.5 4.1 -3.7 -4.6 6.7 -9.2 11 -3.1 2.8 -2.8 2.4 1.3 -2.5z"/>
  <path d="M103.9 33.9 c-4.1 -3.9 -4.5 -4.4 -1.4 -2.1 3.9 2.9 8.3 7.2 7.3 7.2 -0.2 0 -2.9 -2.3 -5.9 -5.1z"/>
  <path d="M88.3 19.4 c-4.6 -4.4 -4.6 -4.4 -0.7 -1.5 4 3 7.1 6.1 6.1 6.1 -0.3 0 -2.7 -2.1 -5.4 -4.6z"/>
 </g>
 <g fill="#000000">
  <path d="M73.9 297.7 c0.5 -0.5 3 -0.7 5.7 -0.5 l4.9 0.3 -5.7 0.5 c-3.1 0.3 -5.3 0.1 -4.9 -0.3z"/>
  <path d="M40 97.1 c0 -0.4 0.9 -2 2 -3.4 1.1 -1.4 2 -3 2 -3.6 0 -1.4 -1.7 -1.4 -2.5 -0.1 -0.4 0.6 -1.1 0.8 -1.6 0.4 -1.6 -0.9 0.1 -2.4 2.7 -2.4 3.2 0 4 2.4 2 5.5 -1.4 2.2 -1.5 2.5 -0.1 2.5 0.8 0 1.5 0.5 1.5 1 0 0.6 -1.3 1 -3 1 -1.6 0 -3 -0.4 -3 -0.9z"/>
  <path d="M48.5 97 c-0.3 -0.5 0.3 -1 1.4 -1 1.2 0 2.1 -0.7 2.1 -1.5 0 -0.9 -0.9 -1.5 -2.1 -1.5 -1.5 0 -1.9 -0.4 -1.5 -1.6 0.3 -0.9 0.6 -2 0.6 -2.5 0 -0.5 1.5 -0.9 3.3 -0.8 1.7 0 2.5 0.3 1.7 0.6 -0.8 0.2 -2.2 0.7 -3 0.9 -1 0.4 -0.8 0.8 1 1.7 3 1.5 3.5 3.1 1.5 5.1 -1.9 1.8 -4.1 2.1 -5 0.6z"/>
  <path d="M57.5 96.4 c-3.4 -3.5 0.3 -10.3 4.3 -7.8 2.3 1.5 2.7 5.8 0.7 7.8 -0.9 0.9 -2 1.6 -2.5 1.6 -0.5 0 -1.6 -0.7 -2.5 -1.6z m4 -4 c0 -1.9 -0.5 -2.9 -1.5 -2.9 -1.6 0 -2.5 2.8 -1.6 5.1 1 2.5 3.1 1 3.1 -2.2z"/>
  <path d="M69.4 94.9 c0.3 -1.7 0.6 -4 0.6 -5 0 -2.8 2.9 -2.3 3.6 0.6 0.8 3.2 2 3.2 2.8 -0.1 0.4 -1.4 1.2 -2.4 1.9 -2.1 1.5 0.5 3 7.8 1.8 9 -0.6 0.6 -1.2 -0.5 -1.7 -2.9 l-0.7 -3.9 -0.9 3.3 c-1 3.9 -2.3 4.1 -3.6 0.5 l-1 -2.8 -0.7 3.3 c-1 4.2 -3 4.3 -2.1 0.1z"/>
  <path d="M82.7 97.3 c-0.4 -0.3 -0.7 -2.6 -0.7 -5 0 -4.2 0.1 -4.3 3.3 -4.2 2.3 0.1 2.6 0.3 1 0.6 -2.8 0.5 -3 2.3 -0.3 2.3 1.1 0 2 0.5 2 1 0 0.6 -0.9 1 -2 1 -1.1 0 -2 0.7 -2 1.5 0 0.8 0.9 1.5 2 1.5 1.1 0 2 0.5 2 1 0 1.1 -4.3 1.4 -5.3 0.3z"/>
  <path d="M92 93.5 c0 -3.6 -0.4 -4.5 -1.7 -4.6 -1 -0.1 -0.2 -0.5 1.7 -0.9 2 -0.5 3.9 -0.5 4.5 0.1 0.5 0.6 0.3 0.9 -0.8 0.9 -1.3 0 -1.7 0.9 -1.7 4.5 0 2.5 -0.4 4.5 -1 4.5 -0.5 0 -1 -2 -1 -4.5z"/>
  <path d="M98 92.5 c0 -5.4 0 -5.5 3 -5.5 1.7 0 3 0.5 3 1 0 0.6 -0.9 1 -2 1 -1.1 0 -2 0.5 -2 1 0 0.6 0.9 1 2 1 1.1 0 2 0.5 2 1 0 0.6 -0.9 1 -2 1 -1.1 0 -2 0.7 -2 1.5 0 0.8 0.9 1.5 2 1.5 1.1 0 2 0.5 2 1 0 0.6 -1.3 1 -3 1 -3 0 -3 -0.1 -3 -5.5z"/>
  <path d="M106 92.5 c0 -4.6 0.3 -5.5 1.8 -5.5 1 0 2.7 0.6 3.8 1.4 1.6 1.3 1.7 1.8 0.6 3.6 -1 1.7 -1.1 2.5 -0.1 3.6 0.6 0.8 0.9 1.8 0.5 2.2 -0.4 0.4 -1.6 -0.4 -2.6 -1.8 l-2 -2.5 0 2.3 c0 1.2 -0.4 2.2 -1 2.2 -0.5 0 -1 -2.5 -1 -5.5z m4.2 -2 c0 -0.5 -0.5 -1.1 -1.1 -1.3 -0.6 -0.2 -1.1 0.4 -1.1 1.3 0 0.9 0.5 1.5 1.1 1.3 0.6 -0.2 1.1 -0.8 1.1 -1.3z"/>
 </g>
</svg>