<?xml version="1.0" encoding="utf-8"?>
<!DOCTYPE svg PUBLIC "-//W3C//DTD SVG 20010904//EN" "http://www.w3.org/TR/2001/REC-SVG-20010904/DTD/svg10.dtd">
<svg version="1.0" xmlns="http://www.w3.org/2000/svg" width="703px" height="690px" viewBox="0 0 703 690" preserveAspectRatio="xMidYMid meet">
 <g fill="#ffffff">
  <path d="M171.4 285.6 c-9.8 -3.2 -18 -11.9 -20.5 -21.9 -1.8 -7.3 -0.8 -20.3 2.1 -26.2 5.3 -10.9 14.5 -16.6 27.7 -17.3 9.5 -0.5 16.2 0.8 21.5 4.4 2.1 1.3 4 2.4 4.3 2.4 0.3 0 0.5 -1.3 0.5 -3 l0 -3 14 0 14 0 2.7 5.5 c1.5 3 3 5.5 3.3 5.5 0.3 0 1.8 -2.5 3.3 -5.5 l2.7 -5.5 14 0 14 0 0 3 c0 1.7 0.2 3 0.5 3 0.3 0 2.2 -1.1 4.3 -2.4 5.3 -3.6 12 -4.9 21.5 -4.4 13.2 0.7 22.4 6.4 27.8 17.4 2.1 4.3 2.4 6.3 2.4 15.9 0 9.6 -0.3 11.6 -2.4 15.9 -3.1 6.3 -8.4 11.6 -14.7 14.7 -4.3 2.1 -6.3 2.4 -15.9 2.4 -9.6 0 -11.6 -0.3 -15.9 -2.4 -10.9 -5.4 -16.6 -14.7 -17.4 -28.1 l-0.5 -8.4 -4.8 9.4 c-4.7 9.4 -4.8 9.6 -4.8 19.3 l-0.1 9.7 -14 0 -14 0 -0.1 -9.7 c0 -9.7 -0.1 -9.9 -4.8 -19.3 l-4.8 -9.4 -0.5 8.4 c-0.8 13.4 -6.7 22.8 -17.6 28.2 -5.8 2.8 -21.2 3.6 -27.8 1.4z m16.5 -27.7 c3.5 -3.5 3.7 -4.6 1.3 -7.5 -3 -3.8 -6 -4.8 -8.7 -3 -5.2 3.4 -5.5 7.9 -0.8 11.6 3.4 2.7 4.6 2.5 8.2 -1.1z m114.4 1.1 c4.7 -3.7 4.4 -8.2 -0.8 -11.6 -2.7 -1.8 -5.7 -0.8 -8.7 3 -2.4 2.9 -2.2 4 1.3 7.5 3.6 3.6 4.8 3.8 8.2 1.1z"/>
 </g>
 <g fill="#c1c1c1">
  <path d="M107.7 661.3 c-0.8 -4 0.4 -27.3 1.5 -27.9 1.2 -0.8 1 -607.4 -0.2 -607.4 -0.5 0 -1 -0.7 -1 -1.5 0 -2.1 6.7 -2 8.8 0.2 1.6 1.6 1.7 1.6 2 0 0.3 -1.5 2.5 -1.7 22.3 -1.7 21.2 0 21.9 0.1 21.9 2 0 2 0.7 2 103 2 l103 0 0 318.5 0 318.5 -130.4 0 -130.4 0 -0.5 -2.7z m142.7 -36.9 c1.4 -1.4 1.6 -7.2 1.6 -49 0 -30.9 -0.4 -48.2 -1 -49.5 -1 -1.8 -2.3 -1.9 -19 -1.9 l-18 0 0 51 0 51 17.4 0 c14.5 0 17.7 -0.3 19 -1.6z m1 -205 c0.3 -0.9 0.6 -14.3 0.6 -29.9 l0 -28.3 4.5 -0.7 c17.6 -2.6 41.3 -15.4 56.3 -30.4 23 -23.1 35.8 -56.9 32.4 -85.9 -5.3 -45.6 -36.9 -83 -80.7 -95.7 -4.8 -1.4 -9.6 -2.5 -10.6 -2.5 -1.8 0 -1.9 -1 -1.9 -15.1 0 -8.4 -0.5 -15.9 -1 -17 -1 -1.8 -2.3 -1.9 -19 -1.9 l-18 0 0 17.4 0 17.4 -7.2 2.2 c-28.9 8.7 -54.5 30.4 -68.1 57.5 -3.6 7.2 -8.2 20.9 -9.8 29 -1.8 9 -1.8 27 0 36 8 40.8 38 74.2 78 86.7 l7.1 2.2 0 30.3 0 30.3 18.4 0 c15.8 0 18.5 -0.2 19 -1.6z"/>
 </g>
 <g fill="#b4b4b4">
  <path d="M147 679 c0.9 -0.6 1 -1 0.3 -1 -0.7 0 -2.2 -1 -3.3 -2.2 -2.1 -2.3 -2.5 -2.3 -32.7 -2.7 -28.2 -0.3 -30.6 -0.5 -31 -2.1 -0.6 -2.4 -4.9 -3 -21.6 -3 -13 0 -13.9 -0.1 -14.4 -2 -0.4 -1.4 -1.4 -2 -3.7 -2.1 -16.2 -0.4 -15.8 -0.3 -17.4 -2.6 -0.8 -1.4 -2.5 -2.3 -3.9 -2.3 -1.3 0 -3.3 -0.5 -4.4 -1 -2 -1.1 -2.7 -4 -0.9 -4 0.6 0 2 -1.1 3.2 -2.5 1.7 -2 3.1 -2.5 6.5 -2.5 3.4 0 4.9 -0.6 6.7 -2.5 2.1 -2.3 3 -2.5 10.9 -2.5 8.1 0 8.8 -0.2 10.3 -2.5 1.6 -2.5 1.8 -2.5 15.5 -2.5 13.9 0 14 0 14.9 -2.5 0.9 -2.4 1.1 -2.4 14.2 -2.7 l13.3 -0.3 0.3 -303.7 c0.2 -269.6 0 -303.8 -1.3 -303.8 -0.8 0 -1.5 -0.7 -1.5 -1.5 0 -1.2 1.7 -1.5 9 -1.5 7.1 0 9 0.3 9 1.4 0 0.8 -0.8 1.7 -1.7 1.9 -1.7 0.4 -1.7 0.5 0 0.6 0.9 0 1.7 0.6 1.7 1.1 0 1.6 -9.7 1.2 -11.4 -0.5 -0.8 -0.8 -1.7 -1.5 -2 -1.5 -0.3 0 -0.6 51.6 -0.6 114.8 l0 114.7 6.5 -0.3 c4.8 -0.3 6.5 -0.7 6.5 -1.8 0 -0.8 0.7 -1.4 1.5 -1.4 1.1 0 1.5 1.2 1.5 5 0 3.8 -0.4 5 -1.5 5 -0.8 0 -1.5 -0.7 -1.5 -1.5 0 -1 -1 -1.5 -3.4 -1.5 -1.8 0 -4.8 -0.3 -6.5 -0.6 l-3.1 -0.6 0 102.5 0 102.5 3.3 0.7 c6 1.3 13.7 1.7 13.7 0.8 0 -1.4 9.7 -1.8 31.5 -1.5 82.5 1.1 141.5 1.1 141.5 0.1 0 -1.7 44.5 -0.8 46.2 0.9 1.4 1.4 12.8 1.6 12.8 0.2 0 -0.5 1.4 -1 3 -1 2 0 3 -0.5 3 -1.5 0 -0.8 0.7 -1.5 1.5 -1.5 1.1 0 1.5 1.2 1.5 4.5 0 3.3 -0.4 4.5 -1.5 4.5 -0.8 0 -1.5 -0.7 -1.5 -1.6 0 -1.5 -1.1 -1.6 -10.4 -1 -13.4 0.8 -226.2 0.8 -236.6 0 l-8 -0.7 -0.2 95.4 c-0.2 52.5 -0.1 96.4 0.1 97.7 l0.3 2.2 127.4 0 c84.3 0 127.4 -0.3 127.4 -1 0 -0.7 38 -1 112 -1 l112 0 0 -19 c0 -16.2 0.2 -19 1.5 -19 0.8 0 1.5 0.7 1.5 1.5 0 1.3 2.2 1.5 13.4 1.5 14.1 0 16.6 0.4 16.6 2.5 0 2.1 2.5 2.5 18 2.5 15.5 0 18 0.4 18 2.5 0 1.9 2.4 2.5 10.8 2.5 8.1 0 9.5 0.4 10.5 3.3 0.4 1.1 1.7 1.7 3.9 1.7 1.8 0 3.9 0.4 4.7 0.9 1.7 1.1 0.8 4.1 -1.2 4.1 -0.8 0 -1.9 1.1 -2.5 2.5 -1 2.2 -1.8 2.5 -6.6 2.5 -4.6 0 -5.6 0.3 -7 2.5 -1.6 2.4 -2.1 2.5 -11.1 2.5 -7.7 0 -9.5 0.3 -9.5 1.5 0 2.7 -3.8 3.5 -16.9 3.5 -11.1 0 -13.1 0.2 -13.1 1.5 0 2.6 -4.2 3.4 -14.7 2.8 -5.4 -0.3 -13.3 -0.3 -17.5 0.1 -6.3 0.6 -7.7 1.1 -8.1 2.7 -0.5 1.8 -1.7 1.9 -23.5 1.9 -26.9 0 -31.8 0.5 -32.5 3.1 -0.5 1.8 -2.1 1.9 -34.5 1.9 -37.8 0 -49.2 0.6 -49.2 2.6 0 0.7 -1 1.6 -2.1 1.9 -1.7 0.6 -1.9 0.9 -0.8 1.6 0.8 0.5 -61.2 0.9 -145.6 0.9 -95.3 0 -146.5 -0.4 -145.5 -1z"/>
  <path d="M210.8 628.4 c-0.3 -0.3 -0.4 -1.4 -0.1 -2.5 0.5 -1.8 1.6 -1.9 19.9 -1.9 l19.4 0 0 -49 0 -49 -19.4 0 c-18.3 0 -19.4 -0.1 -19.9 -1.9 -0.3 -1.1 -0.2 -2.2 0.1 -2.5 0.3 -0.3 9.9 -0.6 21.3 -0.6 19.6 0 20.9 0.1 21.9 1.9 0.6 1.3 1 19.6 1 52.5 0 44.5 -0.2 50.6 -1.6 52 -1.3 1.4 -4.7 1.6 -21.8 1.6 -11.1 0 -20.5 -0.3 -20.8 -0.6z"/>
  <path d="M210.7 422 c0.3 -1.1 1.4 -2 2.4 -2 1.2 0 1.9 0.7 1.9 2 0 1.4 -0.7 2 -2.4 2 -1.9 0 -2.3 -0.4 -1.9 -2z"/>
  <path d="M250 393 l0 -31 4 0 c2.2 0 4 0.5 4 1 0 0.6 -0.7 1 -1.5 1 -1.3 0 -1.5 3.8 -1.5 28.4 0 15.6 -0.3 29.1 -0.6 30 -0.3 0.9 -1.5 1.6 -2.5 1.6 -1.8 0 -1.9 -1.3 -1.9 -31z"/>
  <path d="M346 258 c0 -2.9 0.4 -4 1.5 -4 0.8 0 1.5 0.7 1.5 1.5 0 0.9 0.9 1.5 2.5 1.5 1.4 0 2.5 -0.5 2.5 -1.1 0 -0.8 1.8 -1 6 -0.6 4.9 0.6 6 0.4 6 -0.8 0 -0.8 0.7 -1.5 1.5 -1.5 1.1 0 1.5 1.1 1.5 4 0 2.9 -0.4 4 -1.5 4 -0.8 0 -1.5 -0.7 -1.5 -1.6 0 -1.4 -0.8 -1.6 -5.2 -1 -2.9 0.3 -6.8 0.6 -8.5 0.6 -2.3 0 -3.3 0.5 -3.3 1.5 0 0.8 -0.7 1.5 -1.5 1.5 -1.1 0 -1.5 -1.1 -1.5 -4z"/>
  <path d="M250 129.5 l0 -15.5 -19.4 0 c-18.3 0 -19.4 -0.1 -19.9 -1.9 -0.3 -1.1 -0.2 -2.2 0.1 -2.5 0.3 -0.3 9.9 -0.6 21.3 -0.6 19.6 0 20.9 0.1 21.9 1.9 0.5 1.1 1 8.6 1 17 0 12.8 0.2 15.1 1.5 15.1 0.8 0 1.5 0.5 1.5 1 0 0.6 -1.8 1 -4 1 l-4 0 0 -15.5z"/>
  <path d="M153.8 29.3 c-3.3 -0.8 -1.8 -2.3 2.5 -2.4 2.3 -0.1 3.4 -0.3 2.5 -0.6 -2.2 -0.6 -2.3 -2.9 -0.2 -3.7 0.9 -0.3 4.7 -0.6 8.5 -0.6 l6.9 0 0 4 0 4 -9.2 -0.1 c-5.1 -0.1 -10.1 -0.3 -11 -0.6z"/>
 </g>
 <g fill="#969696">
  <path d="M109.1 659.8 c0.1 -1.6 0.3 -1.8 0.6 -0.6 0.2 0.9 1.2 1.9 2.1 2.1 1.2 0.3 1 0.5 -0.5 0.6 -1.8 0.1 -2.3 -0.4 -2.2 -2.1z"/>
  <path d="M364.3 661.3 c1.6 -0.4 1.7 -16.3 1.7 -315.8 l0 -315.4 -3.3 -0.6 c-1.8 -0.4 -46 -0.5 -98.3 -0.3 -121.1 0.4 -147.8 0.2 -146.9 -1.2 0.4 -0.6 9.8 -1 27.1 -1 14.5 0 26.4 -0.3 26.4 -0.7 0 -0.5 -21.9 -0.8 -48.7 -0.8 l-48.8 0 0 -11.5 0 -11.5 277.5 0 277.5 0 0 11.5 0 11.5 -18.5 0.5 c-10.2 0.3 -17.7 0.7 -16.7 0.8 2.1 0.3 2.3 2.2 0.1 2.2 -1.4 0 -1.5 30.4 -1.2 316.5 l0.3 316.5 -115 -0.1 c-63.2 -0.1 -114.2 -0.3 -113.2 -0.6z m89.7 -97.8 l0 -49.5 -18.5 0 -18.5 0 0 49.5 0 49.5 18.5 0 18.5 0 0 -49.5z m94 0 l0 -49.5 -18.5 0 -18.5 0 0 49.5 0 49.5 18.5 0 18.5 0 0 -49.5z m-94 -200 l0 -49.5 -18.5 0 -18.5 0 0 49.5 0 49.5 18.5 0 18.5 0 0 -49.5z m94 0 l0 -49.5 -18.5 0 -18.5 0 0 49.5 0 49.5 18.5 0 18.5 0 0 -49.5z m-94 -199.5 l0 -49 -18.5 0 -18.5 0 0 49 0 49 18.5 0 18.5 0 0 -49z m94 0 l0 -49 -18.5 0 -18.5 0 0 49 0 49 18.5 0 18.5 0 0 -49z"/>
  <path d="M211 575 l0 -52 21 0 21 0 0 52 0 52 -21 0 -21 0 0 -52z"/>
  <path d="M140.2 465.8 c-0.4 -0.4 -2.5 -0.8 -4.7 -1.1 -2.2 -0.2 43.9 -0.4 102.5 -0.4 58.6 0.1 104.4 0.2 101.8 0.4 -2.7 0.2 -4.8 0.7 -4.8 1.1 0 0.9 -193.9 0.9 -194.8 0z"/>
  <path d="M211.7 423.3 c-0.4 -0.3 -0.7 -14.1 -0.7 -30.5 0 -25.8 -0.2 -29.8 -1.5 -29.8 -0.8 0 -1.5 -0.7 -1.5 -1.6 0 -1.8 -0.5 -1.8 17 0.6 4.3 0.7 12.4 0.8 19.3 0.4 8.5 -0.4 11.7 -0.3 11.7 0.5 0 0.6 -0.7 1.4 -1.5 1.7 -1.3 0.5 -1.5 4.8 -1.5 30 l0 29.4 -20.3 0 c-11.2 0 -20.7 -0.3 -21 -0.7z"/>
  <path d="M208 146.1 c0 -0.6 0.7 -1.4 1.5 -1.7 1.2 -0.5 1.5 -3.4 1.5 -17 l0 -16.4 21 0 21 0 0 15.4 c0 12.8 0.3 15.5 1.5 16 0.8 0.3 1.5 1.1 1.5 1.7 0 0.8 -3.2 0.9 -11.7 0.4 -7.2 -0.4 -14.6 -0.2 -18.8 0.5 -13.6 2.1 -17.5 2.3 -17.5 1.1z"/>
 </g>
 <g fill="#e1251b">
  <path d="M220.3 365 c-19.5 -2.7 -41.3 -12.8 -57.1 -26.3 -18.7 -15.8 -32.4 -39.4 -37.3 -64.2 -1.8 -9.1 -1.8 -32.9 0 -42 4.3 -21.7 15.3 -42.5 31.1 -58.3 36.6 -36.9 94.3 -43.7 138.6 -16.3 48.7 30.2 66.8 91.7 42.4 143.8 -14.6 31.2 -44.1 54.5 -78.4 61.9 -8.4 1.9 -30.6 2.6 -39.3 1.4z m-24 -83.9 c5.9 -2.9 11.9 -8.9 14.8 -14.9 3.3 -6.7 3.3 -18.7 0 -25.4 -3 -6.3 -8.6 -11.9 -14.7 -14.9 -7 -3.4 -18.8 -3.4 -25.8 0 -24.8 12.2 -22.4 48.1 3.8 56.7 5.8 1.9 16.3 1.2 21.9 -1.5z m115.3 -0.1 c6.1 -3 11.4 -8.3 14.5 -14.6 1.9 -3.9 2.4 -6.5 2.4 -12.9 0 -9.3 -2.4 -15.4 -8.5 -21.5 -6.1 -6.1 -12.2 -8.5 -21.5 -8.5 -9.4 0 -15.5 2.5 -21.6 8.7 -15.8 16.3 -9 43.4 12.6 50.5 5.8 1.9 16.3 1.1 22.1 -1.7z m-59.6 -7.5 l0 -9.5 10 -20 10 -20 -11 0 -11 0 -4.2 8.5 c-2.3 4.7 -4.5 8.5 -4.8 8.5 -0.3 0 -2.5 -3.8 -4.8 -8.5 l-4.2 -8.5 -11 0 -11 0 10 20 10 20 0 9.5 0 9.5 11 0 11 0 0 -9.5z"/>
  <path d="M175.9 261.1 c-6.4 -6.4 -2.1 -18.1 6.6 -18.1 7.1 0 11.4 4.1 11.5 10.7 0 3.3 -0.6 4.8 -3.1 7.2 -2.5 2.5 -3.9 3.1 -7.6 3.1 -3.6 0 -5 -0.6 -7.4 -2.9z"/>
  <path d="M291.1 260.9 c-2.5 -2.4 -3.1 -3.9 -3.1 -7.2 0.1 -6.6 4.4 -10.7 11.5 -10.7 5.5 0 9.5 4.4 9.5 10.5 0 3.8 -0.5 5.2 -2.9 7.6 -2.4 2.3 -3.8 2.9 -7.4 2.9 -3.7 0 -5.1 -0.6 -7.6 -3.1z"/>
 </g>
 <g fill="#414141">
  <path d="M590.2 661.3 c0.9 -0.2 1.9 -1.2 2.1 -2.1 0.3 -1.2 0.5 -1 0.6 0.6 0.1 1.7 -0.4 2.2 -2.1 2.1 -1.6 -0.1 -1.8 -0.3 -0.6 -0.6z"/>
  <path d="M414 563.5 l0 -52.5 21.5 0 21.5 0 0 52.5 0 52.5 -21.5 0 -21.5 0 0 -52.5z"/>
  <path d="M508 563.5 l0 -52.5 21.5 0 21.5 0 0 52.5 0 52.5 -21.5 0 -21.5 0 0 -52.5z"/>
  <path d="M414 363.5 l0 -52.5 21.5 0 21.5 0 0 52.5 0 52.5 -21.5 0 -21.5 0 0 -52.5z"/>
  <path d="M508 363.5 l0 -52.5 21.5 0 21.5 0 0 52.5 0 52.5 -21.5 0 -21.5 0 0 -52.5z"/>
  <path d="M414 164 l0 -52 21.5 0 21.5 0 0 52 0 52 -21.5 0 -21.5 0 0 -52z"/>
  <path d="M508 164 l0 -52 21.5 0 21.5 0 0 52 0 52 -21.5 0 -21.5 0 0 -52z"/>
  <path d="M483.8 29.2 c-3.1 -0.6 -1.9 -2.2 1.7 -2.2 1.9 0 3.5 0.4 3.5 0.9 0 1.1 -2.9 1.8 -5.2 1.3z"/>
  <path d="M124.5 28 c0.3 -0.5 4 -1 8.1 -1 4.3 0 7.4 0.4 7.4 1 0 0.6 -3.4 1 -8.1 1 -5.1 0 -7.8 -0.4 -7.4 -1z"/>
  <path d="M567 28 c0 -0.7 5 -1 14 -0.9 7.7 0 14 0.5 14 1 0 0.5 -6.3 0.9 -14 0.9 -9 0 -14 -0.4 -14 -1z"/>
 </g>
 <g fill="#141414">
  <path d="M109.5 660.9 c-0.8 -1.1 -0.7 -27 0 -27.8 0.3 -0.2 0.5 5.9 0.5 13.7 0 13.8 0 14.1 2.3 14.5 2.2 0.4 2.2 0.4 0 0.6 -1.2 0 -2.5 -0.4 -2.8 -1z"/>
  <path d="M248 28.5 c0 -1.2 1.9 -1.5 11.5 -1.5 9.6 0 11.5 0.3 11.5 1.5 0 1.2 -1.9 1.5 -11.5 1.5 -9.6 0 -11.5 -0.3 -11.5 -1.5z"/>
  <path d="M309 28 c0 -2 0.7 -2 60.4 -2 33.2 0 61.1 0.3 62 0.6 0.9 0.3 1.6 1.2 1.6 2 0 1.2 -9.7 1.4 -62 1.4 -61.3 0 -62 0 -62 -2z"/>
  <path d="M439 28.5 c0 -1.2 1.6 -1.5 8.3 -1.6 15 -0.1 27.2 0.2 27.7 0.7 1.6 1.6 -4.5 2.4 -19.2 2.4 -14.3 0 -16.8 -0.2 -16.8 -1.5z"/>
  <path d="M137 28 c0 -0.6 3.2 -1 7.5 -1 4.3 0 7.5 0.4 7.5 1 0 0.6 -3.2 1 -7.5 1 -4.3 0 -7.5 -0.4 -7.5 -1z"/>
  <path d="M553 28 c0 -0.6 3.7 -1 9.1 -1 5.7 0 8.8 0.4 8.4 1 -0.3 0.6 -4.4 1 -9.1 1 -4.9 0 -8.4 -0.4 -8.4 -1z"/>
  <path d="M592 28 c0 -0.5 0.6 -1 1.4 -1 0.8 0 1.8 0.5 2.1 1 0.3 0.6 -0.3 1 -1.4 1 -1.2 0 -2.1 -0.4 -2.1 -1z"/>
 </g>
 <g fill="#000000">
  <path d="M351.5 661.3 l240.5 -0.3 0.3 -20 0.3 -20 -0.1 20.2 0 20.3 -240.8 0 -240.7 0 240.5 -0.2z"/>
  <path d="M193.3 29.2 c-28.4 -0.1 -44.3 -0.6 -44.3 -1.2 0 -0.7 17.9 -1 50.8 -1 27.9 0 66 -0.2 84.7 -0.4 18.7 -0.3 32.7 -0.2 31.2 0 -1.6 0.3 -3.1 1.2 -3.4 2 -0.4 1.2 -6 1.4 -37.7 1.2 -20.4 -0.2 -57 -0.4 -81.3 -0.6z"/>
  <path d="M398 29 c0 -0.5 -0.8 -1.1 -1.7 -1.3 -2.3 -0.6 19.7 -0.8 96.6 -0.7 34.4 0 62.7 0.3 63 0.5 0.2 0.3 0.2 0.7 0 0.9 -0.9 0.8 -157.9 1.4 -157.9 0.6z"/>
  <path d="M73.5 13.5 l0 -11 277.5 0 277.5 0 0.1 11.3 0 11.2 -0.3 -11 -0.4 -11 -276.9 0 -276.9 0 -0.4 10.8 -0.3 10.7 0.1 -11z"/>
 </g>
</svg>